<svg class="animated" id="freepik_stories-phone-customization" xmlns="http://www.w3.org/2000/svg" viewBox="0 0 500 500" version="1.1" xmlns:xlink="http://www.w3.org/1999/xlink" xmlns:svgjs="http://svgjs.com/svgjs"><style>svg#freepik_stories-phone-customization:not(.animated) .animable {opacity: 0;}svg#freepik_stories-phone-customization.animated #freepik--background-simple--inject-110 {animation: 3s Infinite  linear floating;animation-delay: 0s;}            @keyframes floating {                0% {                    opacity: 1;                    transform: translateY(0px);                }                50% {                    transform: translateY(-10px);                }                100% {                    opacity: 1;                    transform: translateY(0px);                }            }        </style><g id="freepik--background-simple--inject-110" class="animable animator-active" style="transform-origin: 252.963px 245.688px;"><path d="M231.4,36.66c-21.37,8.72-42.18,18.86-64.56,24.6C142,67.63,117.28,62,92.26,65.7,17,76.73,2.52,170.94,19,232c17,63,43,70,30,88-19.65,27.21-34.11,61.68-21.41,95,9.08,23.87,30.71,41.5,54.72,50.22,35.22,12.79,73.81,9.61,109-1.1,34.38-10.46,68.26-26.06,104.94-25.09,46.43,1.22,92.4,24.61,138.91,11.27C481.86,436.94,493.7,389.41,493,346c-1-62-46-87-46-121,0-20,9.55-37.07,15.23-55.62,6.09-19.85,8.51-41.19,3.69-61.58-8.65-36.65-39.76-65.13-75-78.34-40.07-15-87.2-14.69-128.16-3.7A266.32,266.32,0,0,0,231.4,36.66Z" style="fill: rgb(166, 176, 192); transform-origin: 252.963px 245.688px;" id="el9i2ks8wzimj" class="animable"></path><g id="elz032l6tpvf"><path d="M231.4,36.66c-21.37,8.72-42.18,18.86-64.56,24.6C142,67.63,117.28,62,92.26,65.7,17,76.73,2.52,170.94,19,232c17,63,43,70,30,88-19.65,27.21-34.11,61.68-21.41,95,9.08,23.87,30.71,41.5,54.72,50.22,35.22,12.79,73.81,9.61,109-1.1,34.38-10.46,68.26-26.06,104.94-25.09,46.43,1.22,92.4,24.61,138.91,11.27C481.86,436.94,493.7,389.41,493,346c-1-62-46-87-46-121,0-20,9.55-37.07,15.23-55.62,6.09-19.85,8.51-41.19,3.69-61.58-8.65-36.65-39.76-65.13-75-78.34-40.07-15-87.2-14.69-128.16-3.7A266.32,266.32,0,0,0,231.4,36.66Z" style="fill: rgb(255, 255, 255); opacity: 0.7; transform-origin: 252.963px 245.688px;" class="animable"></path></g></g><g id="freepik--home-screen--inject-110" class="animable" style="transform-origin: 298.79px 252.6px;"><rect x="221.13" y="77.94" width="155.32" height="349.32" rx="16.64" style="fill: none; stroke: rgb(38, 50, 56); stroke-miterlimit: 10; transform-origin: 298.79px 252.6px;" id="elyfs3hfvvth" class="animable"></rect><rect x="224.83" y="380.49" width="147.93" height="40.68" rx="10.63" style="fill: none; stroke: rgb(212, 212, 212); stroke-miterlimit: 10; transform-origin: 298.795px 400.83px;" id="el1v45i70ikjf" class="animable"></rect><rect x="227.77" y="191.2" width="142.05" height="74.18" rx="9.11" style="fill: none; stroke: rgb(212, 212, 212); stroke-miterlimit: 10; transform-origin: 298.795px 228.29px;" id="elf90w1ijuz16" class="animable"></rect><rect x="267.33" y="196.12" width="27.33" height="27.33" rx="5" style="fill: rgb(212, 212, 212); transform-origin: 280.995px 209.785px;" id="el4kt2yej78x" class="animable"></rect><rect x="267.33" y="232.79" width="27.33" height="27.33" rx="5" style="fill: rgb(212, 212, 212); transform-origin: 280.995px 246.455px;" id="elquyzn2p7uxq" class="animable"></rect><rect x="231.32" y="232.79" width="27.33" height="27.33" rx="5" style="fill: rgb(212, 212, 212); transform-origin: 244.985px 246.455px;" id="el5k3qfvnqigq" class="animable"></rect><rect x="231.32" y="196.12" width="27.33" height="27.33" rx="5" style="fill: rgb(212, 212, 212); transform-origin: 244.985px 209.785px;" id="elkcbduqiure9" class="animable"></rect><rect x="267.33" y="275.32" width="27.33" height="27.33" rx="5" style="fill: rgb(212, 212, 212); transform-origin: 280.995px 288.985px;" id="elyvvht5iineg" class="animable"></rect><rect x="267.33" y="311.99" width="27.33" height="27.33" rx="5" style="fill: rgb(212, 212, 212); transform-origin: 280.995px 325.655px;" id="el9onf9mekmlk" class="animable"></rect><rect x="231.32" y="311.99" width="27.33" height="27.33" rx="5" style="fill: rgb(212, 212, 212); transform-origin: 244.985px 325.655px;" id="el6n5twlf2d97" class="animable"></rect><rect x="231.32" y="275.32" width="27.33" height="27.33" rx="5" style="fill: rgb(212, 212, 212); transform-origin: 244.985px 288.985px;" id="elmxvajx6g5" class="animable"></rect><rect x="338.69" y="196.12" width="27.33" height="27.33" rx="5" style="fill: rgb(212, 212, 212); transform-origin: 352.355px 209.785px;" id="el7e87p3velv" class="animable"></rect><rect x="338.69" y="232.79" width="27.33" height="27.33" rx="5" style="fill: rgb(212, 212, 212); transform-origin: 352.355px 246.455px;" id="el431588qyk27" class="animable"></rect><rect x="302.68" y="232.79" width="27.33" height="27.33" rx="5" style="fill: rgb(212, 212, 212); transform-origin: 316.345px 246.455px;" id="elboju86i0u7n" class="animable"></rect><rect x="302.68" y="196.12" width="27.33" height="27.33" rx="5" style="fill: rgb(212, 212, 212); transform-origin: 316.345px 209.785px;" id="el4r87kqugy4y" class="animable"></rect><rect x="231.32" y="109" width="64" height="64" rx="7.3" style="fill: rgb(212, 212, 212); transform-origin: 263.32px 141px;" id="elxzepldktdcq" class="animable"></rect><path d="M283,125l-13.66,27.82-19.73-8.6L232.12,169a7.29,7.29,0,0,0,6.5,4H288a7.3,7.3,0,0,0,7.3-7.3V131.57Z" style="fill: rgb(196, 196, 196); transform-origin: 263.71px 149px;" id="ela39kbbbh5z4" class="animable"></path><circle cx="248.64" cy="126" r="9.61" style="fill: rgb(196, 196, 196); transform-origin: 248.64px 126px;" id="elqqlfgj9lwin" class="animable"></circle><rect x="302.81" y="275.32" width="64" height="64" rx="7.3" style="fill: rgb(212, 212, 212); transform-origin: 334.81px 307.32px;" id="elerdc8dns9x" class="animable"></rect><path d="M354.53,291.31l-13.66,27.83-19.73-8.6-17.53,24.79a7.3,7.3,0,0,0,6.51,4h49.39a7.3,7.3,0,0,0,7.3-7.3V297.89Z" style="fill: rgb(196, 196, 196); transform-origin: 335.21px 315.32px;" id="elmay8jwg63h" class="animable"></path><g id="el4gzghyfzn91"><circle cx="320.13" cy="292.32" r="9.61" style="fill: rgb(196, 196, 196); transform-origin: 320.13px 292.32px; transform: rotate(-49.32deg);" class="animable"></circle></g><rect x="265.03" y="387.05" width="27.33" height="27.33" rx="5" style="fill: none; stroke: rgb(212, 212, 212); stroke-miterlimit: 10; transform-origin: 278.695px 400.715px;" id="elwtc1vdymuk" class="animable"></rect><rect x="301.04" y="387.05" width="27.33" height="27.33" rx="5" style="fill: none; stroke: rgb(212, 212, 212); stroke-miterlimit: 10; transform-origin: 314.705px 400.715px;" id="elfrd7n3gy1e" class="animable"></rect><rect x="337.06" y="387.05" width="27.33" height="27.33" rx="5" style="fill: none; stroke: rgb(212, 212, 212); stroke-miterlimit: 10; transform-origin: 350.725px 400.715px;" id="elx0k7usbn0er" class="animable"></rect><rect x="229.02" y="387.05" width="27.33" height="27.33" rx="5" style="fill: none; stroke: rgb(212, 212, 212); stroke-miterlimit: 10; transform-origin: 242.685px 400.715px;" id="elj418g7iui7" class="animable"></rect><rect x="339.48" y="109" width="27.33" height="27.33" rx="5" style="fill: rgb(212, 212, 212); transform-origin: 353.145px 122.665px;" id="el6txmrfwpf5v" class="animable"></rect><rect x="339.48" y="145.67" width="27.33" height="27.33" rx="5" style="fill: rgb(212, 212, 212); transform-origin: 353.145px 159.335px;" id="elupk8pt9ledb" class="animable"></rect><rect x="303.47" y="145.67" width="27.33" height="27.33" rx="5" style="fill: rgb(212, 212, 212); transform-origin: 317.135px 159.335px;" id="elutykhz1ueqo" class="animable"></rect><rect x="303.47" y="109" width="27.33" height="27.33" rx="5" style="fill: rgb(212, 212, 212); transform-origin: 317.135px 122.665px;" id="elskswl6hg06l" class="animable"></rect><rect x="308.47" y="114" width="17.33" height="17.33" rx="3.17" style="fill: none; stroke: rgb(255, 255, 255); stroke-miterlimit: 10; transform-origin: 317.135px 122.665px;" id="elrx2gpdoq5lp" class="animable"></rect><circle cx="317.13" cy="122.67" r="5" style="fill: none; stroke: rgb(255, 255, 255); stroke-miterlimit: 10; transform-origin: 317.13px 122.67px;" id="elqezd0qavm" class="animable"></circle><rect x="265.9" y="354.69" width="61.2" height="16.01" rx="8.01" style="fill: none; stroke: rgb(212, 212, 212); stroke-miterlimit: 10; transform-origin: 296.5px 362.695px;" id="ell7lyz3gmum" class="animable"></rect><path d="M277.34,362.7a1.72,1.72,0,1,0-1.72,1.71A1.72,1.72,0,0,0,277.34,362.7Z" style="fill: rgb(212, 212, 212); transform-origin: 275.62px 362.69px;" id="elppdy6q6ixib" class="animable"></path><path d="M288.21,362.7a1.72,1.72,0,1,0-1.72,1.71A1.72,1.72,0,0,0,288.21,362.7Z" style="fill: rgb(212, 212, 212); transform-origin: 286.49px 362.69px;" id="el0z7rwmxuk09f" class="animable"></path><path d="M299.07,362.7a1.72,1.72,0,1,0-1.71,1.71A1.72,1.72,0,0,0,299.07,362.7Z" style="fill: rgb(212, 212, 212); transform-origin: 297.35px 362.69px;" id="elju82ulh3aa" class="animable"></path><path d="M309.94,362.7a1.72,1.72,0,1,0-1.72,1.71A1.72,1.72,0,0,0,309.94,362.7Z" style="fill: rgb(212, 212, 212); transform-origin: 308.22px 362.69px;" id="elf691ugq38fj" class="animable"></path><path d="M320.81,362.7a1.72,1.72,0,1,0-1.72,1.71A1.72,1.72,0,0,0,320.81,362.7Z" style="fill: rgb(212, 212, 212); transform-origin: 319.09px 362.69px;" id="elq4vl6jebkgs" class="animable"></path></g><g id="freepik--Device--inject-110" class="animable" style="transform-origin: 122.775px 252.6px;"><rect x="45.11" y="77.94" width="155.32" height="349.32" rx="16.64" style="fill: rgb(166, 176, 192); transform-origin: 122.77px 252.6px;" id="el77e7xvc57x5" class="animable"></rect><g id="elwfgzet5nwjn"><rect x="48.81" y="380.49" width="147.93" height="40.68" rx="10.63" style="fill: rgb(255, 255, 255); opacity: 0.8; transform-origin: 122.775px 400.83px;" class="animable"></rect></g><rect x="125" y="109" width="64" height="64" rx="7.3" style="fill: rgb(38, 50, 56); transform-origin: 157px 141px;" id="elhxmcgdrrpwn" class="animable"></rect><circle cx="157" cy="141" r="26" style="fill: rgb(102, 102, 102); transform-origin: 157px 141px;" id="el09bnjqdefm6w" class="animable"></circle><circle cx="157" cy="141" r="2.94" style="fill: rgb(255, 255, 255); transform-origin: 157px 141px;" id="ell0oin92x0uk" class="animable"></circle><line x1="155.67" y1="142.28" x2="148.9" y2="151.59" style="fill: none; stroke: rgb(255, 255, 255); stroke-miterlimit: 10; transform-origin: 152.285px 146.935px;" id="elip1nmfog0n8" class="animable"></line><line x1="157.36" y1="142.28" x2="147.63" y2="123.68" style="fill: none; stroke: rgb(255, 255, 255); stroke-miterlimit: 10; transform-origin: 152.495px 132.98px;" id="el9iez6lpqujv" class="animable"></line><rect x="89.01" y="109" width="27.33" height="27.33" rx="5" style="fill: rgb(38, 50, 56); transform-origin: 102.675px 122.665px;" id="eleq9ynosm2d5" class="animable"></rect><rect x="89.01" y="145.67" width="27.33" height="27.33" rx="5" style="fill: rgb(38, 50, 56); transform-origin: 102.675px 159.335px;" id="elocmfhmm6xkp" class="animable"></rect><rect x="53" y="145.67" width="27.33" height="27.33" rx="5" style="fill: rgb(38, 50, 56); transform-origin: 66.665px 159.335px;" id="elphk6b8jhprk" class="animable"></rect><rect x="89.01" y="267.52" width="27.33" height="27.33" rx="5" style="fill: rgb(38, 50, 56); transform-origin: 102.675px 281.185px;" id="elqc11hkyv8uf" class="animable"></rect><rect x="125.03" y="267.52" width="27.33" height="27.33" rx="5" style="fill: rgb(38, 50, 56); transform-origin: 138.695px 281.185px;" id="elj2w8rg9guxj" class="animable"></rect><rect x="161.04" y="267.52" width="27.33" height="27.33" rx="5" style="fill: rgb(38, 50, 56); transform-origin: 174.705px 281.185px;" id="el321wp71t4ps" class="animable"></rect><rect x="53" y="267.52" width="27.33" height="27.33" rx="5" style="fill: rgb(38, 50, 56); transform-origin: 66.665px 281.185px;" id="elm5t0sdb4ov" class="animable"></rect><path d="M58.52,268.65a3,3,0,1,0-3,3A3,3,0,0,0,58.52,268.65Z" style="fill: rgb(255, 255, 255); stroke: rgb(38, 50, 56); stroke-miterlimit: 10; transform-origin: 55.52px 268.65px;" id="elfjhcl9q8kzs" class="animable"></path><path d="M95.46,268.65a3,3,0,1,0-3,3A3,3,0,0,0,95.46,268.65Z" style="fill: rgb(255, 255, 255); stroke: rgb(38, 50, 56); stroke-miterlimit: 10; transform-origin: 92.46px 268.65px;" id="elffqu9u19l5q" class="animable"></path><path d="M131.39,268.65a3,3,0,1,0-3,3A3,3,0,0,0,131.39,268.65Z" style="fill: rgb(255, 255, 255); stroke: rgb(38, 50, 56); stroke-miterlimit: 10; transform-origin: 128.39px 268.65px;" id="elth7grf57gg8" class="animable"></path><path d="M168.11,268.65a3,3,0,1,0-3,3A3,3,0,0,0,168.11,268.65Z" style="fill: rgb(255, 255, 255); stroke: rgb(38, 50, 56); stroke-miterlimit: 10; transform-origin: 165.11px 268.65px;" id="elcp2ehjd4aev" class="animable"></path><rect x="89.01" y="387.05" width="27.33" height="27.33" rx="5" style="fill: none; stroke: rgb(38, 50, 56); stroke-miterlimit: 10; transform-origin: 102.675px 400.715px;" id="elgtttjxor9vd" class="animable"></rect><rect x="125.03" y="387.05" width="27.33" height="27.33" rx="5" style="fill: none; stroke: rgb(38, 50, 56); stroke-miterlimit: 10; transform-origin: 138.695px 400.715px;" id="elordr2xzn8lc" class="animable"></rect><rect x="161.04" y="387.05" width="27.33" height="27.33" rx="5" style="fill: none; stroke: rgb(38, 50, 56); stroke-miterlimit: 10; transform-origin: 174.705px 400.715px;" id="elxfx98qn3yl" class="animable"></rect><rect x="53" y="387.05" width="27.33" height="27.33" rx="5" style="fill: none; stroke: rgb(38, 50, 56); stroke-miterlimit: 10; transform-origin: 66.665px 400.715px;" id="elvr7xfa0r2x" class="animable"></rect><path d="M58.52,387.5a3,3,0,1,0-3,3A3,3,0,0,0,58.52,387.5Z" style="fill: rgb(255, 255, 255); stroke: rgb(38, 50, 56); stroke-miterlimit: 10; transform-origin: 55.52px 387.5px;" id="elwtx8125jk99" class="animable"></path><path d="M95.46,387.5a3,3,0,1,0-3,3A3,3,0,0,0,95.46,387.5Z" style="fill: rgb(255, 255, 255); stroke: rgb(38, 50, 56); stroke-miterlimit: 10; transform-origin: 92.46px 387.5px;" id="elkxxzl0dryls" class="animable"></path><path d="M131.39,387.5a3,3,0,1,0-3,3A3,3,0,0,0,131.39,387.5Z" style="fill: rgb(255, 255, 255); stroke: rgb(38, 50, 56); stroke-miterlimit: 10; transform-origin: 128.39px 387.5px;" id="elc4pusprt2v" class="animable"></path><path d="M168.11,387.5a3,3,0,1,0-3,3A3,3,0,0,0,168.11,387.5Z" style="fill: rgb(255, 255, 255); stroke: rgb(38, 50, 56); stroke-miterlimit: 10; transform-origin: 165.11px 387.5px;" id="elhovl3aarojn" class="animable"></path><rect x="89.01" y="312.65" width="27.33" height="27.33" rx="5" style="fill: rgb(38, 50, 56); transform-origin: 102.675px 326.315px;" id="el67acsi74y1c" class="animable"></rect><rect x="125.03" y="312.65" width="27.33" height="27.33" rx="5" style="fill: rgb(38, 50, 56); transform-origin: 138.695px 326.315px;" id="elhd1ohcdfh3" class="animable"></rect><rect x="161.04" y="312.65" width="27.33" height="27.33" rx="5" style="fill: rgb(38, 50, 56); transform-origin: 174.705px 326.315px;" id="elnc1nwpww88b" class="animable"></rect><rect x="53" y="312.65" width="27.33" height="27.33" rx="5" style="fill: rgb(38, 50, 56); transform-origin: 66.665px 326.315px;" id="el0k2dpcodh38u" class="animable"></rect><path d="M58.52,315a3,3,0,1,0-3,3A3,3,0,0,0,58.52,315Z" style="fill: rgb(255, 255, 255); stroke: rgb(38, 50, 56); stroke-miterlimit: 10; transform-origin: 55.52px 315px;" id="elys91wxvf8t" class="animable"></path><path d="M95.46,315a3,3,0,1,0-3,3A3,3,0,0,0,95.46,315Z" style="fill: rgb(255, 255, 255); stroke: rgb(38, 50, 56); stroke-miterlimit: 10; transform-origin: 92.46px 315px;" id="elt1uc6lu2tb" class="animable"></path><path d="M131.39,315a3,3,0,1,0-3,3A3,3,0,0,0,131.39,315Z" style="fill: rgb(255, 255, 255); stroke: rgb(38, 50, 56); stroke-miterlimit: 10; transform-origin: 128.39px 315px;" id="el339zowxs03u" class="animable"></path><path d="M168.11,315a3,3,0,1,0-3,3A3,3,0,0,0,168.11,315Z" style="fill: rgb(255, 255, 255); stroke: rgb(38, 50, 56); stroke-miterlimit: 10; transform-origin: 165.11px 315px;" id="ele804cwnryq" class="animable"></path><rect x="53" y="109" width="27.33" height="27.33" rx="5" style="fill: rgb(38, 50, 56); transform-origin: 66.665px 122.665px;" id="elchyajfoqji" class="animable"></rect><path d="M58.52,147.12a3,3,0,1,0-3,3A3,3,0,0,0,58.52,147.12Z" style="fill: rgb(255, 255, 255); stroke: rgb(38, 50, 56); stroke-miterlimit: 10; transform-origin: 55.52px 147.12px;" id="elrfwnun9lp5b" class="animable"></path><circle cx="92.48" cy="147.12" r="2.98" style="fill: rgb(255, 255, 255); stroke: rgb(38, 50, 56); stroke-miterlimit: 10; transform-origin: 92.48px 147.12px;" id="ell8dfwzy1ijs" class="animable"></circle><path d="M58.52,110.28a3,3,0,1,0-3,3A3,3,0,0,0,58.52,110.28Z" style="fill: rgb(255, 255, 255); stroke: rgb(38, 50, 56); stroke-miterlimit: 10; transform-origin: 55.52px 110.28px;" id="el1g6njyy2kcn" class="animable"></path><circle cx="92.48" cy="110.28" r="2.98" style="fill: rgb(255, 255, 255); stroke: rgb(38, 50, 56); stroke-miterlimit: 10; transform-origin: 92.48px 110.28px;" id="elsuafd05u8js" class="animable"></circle><rect x="58" y="114" width="17.33" height="17.33" rx="3.17" style="fill: none; stroke: rgb(255, 255, 255); stroke-miterlimit: 10; transform-origin: 66.665px 122.665px;" id="ele66lodtsu2" class="animable"></rect><circle cx="66.67" cy="122.67" r="5" style="fill: none; stroke: rgb(255, 255, 255); stroke-miterlimit: 10; transform-origin: 66.67px 122.67px;" id="elcphfia6wweg" class="animable"></circle><rect x="52.98" y="185.26" width="135.39" height="68.45" rx="8.65" style="fill: rgb(38, 50, 56); transform-origin: 120.675px 219.485px;" id="elqz6i3px1wkk" class="animable"></rect><path d="M69.11,200.81v.57H66.89v-.69c0-1.88-.72-3-2.39-3s-2.4,1.11-2.4,3c0,4.71,7,5.16,7,11.06,0,3.17-1.53,5.24-4.73,5.24s-4.71-2.07-4.71-5.24v-1.2h2.19v1.32c0,1.88.78,3,2.46,3s2.45-1.11,2.45-3c0-4.68-7-5.12-7-11,0-3.23,1.5-5.24,4.65-5.24S69.11,197.64,69.11,200.81Z" style="fill: rgb(255, 255, 255); transform-origin: 64.385px 206.31px;" id="el7qnfocrkf34" class="animable"></path><path d="M73.54,212.53l-.81,4.22H70.58l4-21H78l4,21H79.65l-.81-4.22Zm.3-2h4.67l-2.36-12.1Z" style="fill: rgb(255, 255, 255); transform-origin: 76.29px 206.25px;" id="elg9j7vyr412j" class="animable"></path><path d="M85.7,216.75V197.91H81.84v-2.13h10v2.13H88v18.84Z" style="fill: rgb(255, 255, 255); transform-origin: 86.84px 206.265px;" id="eln7chmk34fc" class="animable"></path><path d="M74.52,229.12c0,6.32-7.1,8.59-7.13,13.42v.33h6.89V245h-9.2v-1.8c0-6.76,7.1-8.08,7.1-14,0-2.16-.72-3.3-2.46-3.3s-2.45,1.23-2.45,3.09v1.85H65.08v-1.7c0-3.21,1.47-5.33,4.7-5.33S74.52,225.91,74.52,229.12Z" style="fill: rgb(255, 255, 255); transform-origin: 69.8px 234.405px;" id="elshh1zi20t4j" class="animable"></path><path d="M86.29,229v.66c0,2.12-.75,3.68-2.4,4.31,1.74.69,2.4,2.34,2.4,4.43V240c0,3.23-1.68,5.24-5,5.24s-4.94-2-4.94-5.24V238.4c0-2.12.66-3.71,2.43-4.43-1.71-.66-2.43-2.19-2.43-4.31V229c0-3.24,1.71-5.18,4.94-5.18S86.29,225.76,86.29,229Zm-7.58.06v1c0,2,1,2.93,2.63,2.93s2.64-.9,2.64-2.93v-1c0-2.16-1-3.15-2.64-3.15S78.71,226.9,78.71,229.06Zm0,9.07v1.77c0,2.16,1,3.18,2.63,3.18s2.61-1,2.64-3.18v-1.77c0-2-.9-3-2.64-3S78.71,236.1,78.71,238.13Z" style="fill: rgb(255, 255, 255); transform-origin: 81.32px 234.53px;" id="elxtghbflhyng" class="animable"></path><line x1="137.22" y1="199.56" x2="178.59" y2="199.56" style="fill: none; stroke: rgb(133, 133, 133); stroke-miterlimit: 10; transform-origin: 157.905px 199.56px;" id="el3x4hpmn12vm" class="animable"></line><rect x="107.89" y="210.9" width="4.64" height="4.64" style="fill: rgb(133, 133, 133); transform-origin: 110.21px 213.22px;" id="elompd6asv33" class="animable"></rect><rect x="118.9" y="210.9" width="4.64" height="4.64" style="fill: rgb(133, 133, 133); transform-origin: 121.22px 213.22px;" id="el8zwdd0f0h6b" class="animable"></rect><rect x="129.91" y="210.9" width="4.64" height="4.64" style="fill: rgb(133, 133, 133); transform-origin: 132.23px 213.22px;" id="elxghqs8x82ws" class="animable"></rect><rect x="140.92" y="210.9" width="4.64" height="4.64" style="fill: rgb(133, 133, 133); transform-origin: 143.24px 213.22px;" id="elxlyn9ib5mbf" class="animable"></rect><rect x="151.94" y="210.9" width="4.64" height="4.64" style="fill: rgb(133, 133, 133); transform-origin: 154.26px 213.22px;" id="el0j7w3e14ueed" class="animable"></rect><rect x="162.95" y="210.9" width="4.64" height="4.64" style="fill: rgb(133, 133, 133); transform-origin: 165.27px 213.22px;" id="elfdpoa2c0fyh" class="animable"></rect><rect x="173.96" y="210.9" width="4.64" height="4.64" style="fill: rgb(133, 133, 133); transform-origin: 176.28px 213.22px;" id="elt60rde6xnrm" class="animable"></rect><rect x="107.89" y="223.56" width="4.64" height="4.64" style="fill: rgb(133, 133, 133); transform-origin: 110.21px 225.88px;" id="el5yqu07q5mnc" class="animable"></rect><rect x="118.9" y="223.56" width="4.64" height="4.64" style="fill: rgb(255, 255, 255); transform-origin: 121.22px 225.88px;" id="elpuiqmsd3f4q" class="animable"></rect><rect x="129.91" y="223.56" width="4.64" height="4.64" style="fill: rgb(133, 133, 133); transform-origin: 132.23px 225.88px;" id="elzajtoi9by2" class="animable"></rect><rect x="140.92" y="223.56" width="4.64" height="4.64" style="fill: rgb(133, 133, 133); transform-origin: 143.24px 225.88px;" id="eld4hcupyhlnj" class="animable"></rect><rect x="151.94" y="223.56" width="4.64" height="4.64" style="fill: rgb(133, 133, 133); transform-origin: 154.26px 225.88px;" id="elkclsigxvsca" class="animable"></rect><rect x="162.95" y="223.56" width="4.64" height="4.64" style="fill: rgb(133, 133, 133); transform-origin: 165.27px 225.88px;" id="el6o58syyu3pf" class="animable"></rect><rect x="173.96" y="223.56" width="4.64" height="4.64" style="fill: rgb(133, 133, 133); transform-origin: 176.28px 225.88px;" id="elk1qe7sgkgo" class="animable"></rect><rect x="107.89" y="236.23" width="4.64" height="4.64" style="fill: rgb(133, 133, 133); transform-origin: 110.21px 238.55px;" id="elbbz24vq6szj" class="animable"></rect><rect x="118.9" y="236.23" width="4.64" height="4.64" style="fill: rgb(133, 133, 133); transform-origin: 121.22px 238.55px;" id="el7e7awdsph8p" class="animable"></rect><rect x="129.91" y="236.23" width="4.64" height="4.64" style="fill: rgb(133, 133, 133); transform-origin: 132.23px 238.55px;" id="elvz4scl015g" class="animable"></rect><rect x="140.92" y="236.23" width="4.64" height="4.64" style="fill: rgb(133, 133, 133); transform-origin: 143.24px 238.55px;" id="eldv37oac5zfk" class="animable"></rect><rect x="151.94" y="236.23" width="4.64" height="4.64" style="fill: rgb(133, 133, 133); transform-origin: 154.26px 238.55px;" id="elvd3zq72oeb" class="animable"></rect><rect x="162.95" y="236.23" width="4.64" height="4.64" style="fill: rgb(133, 133, 133); transform-origin: 165.27px 238.55px;" id="eljxwufi488j" class="animable"></rect><rect x="173.96" y="236.23" width="4.64" height="4.64" style="fill: rgb(133, 133, 133); transform-origin: 176.28px 238.55px;" id="elqu077zzz73c" class="animable"></rect><g id="elcn9p5w9gvsd"><rect x="89.88" y="354.69" width="61.2" height="16.01" rx="8.01" style="fill: rgb(255, 255, 255); opacity: 0.8; transform-origin: 120.48px 362.695px;" class="animable"></rect></g><path d="M101.32,362.7a1.72,1.72,0,1,0-1.71,1.71A1.72,1.72,0,0,0,101.32,362.7Z" style="fill: rgb(166, 176, 192); transform-origin: 99.6px 362.69px;" id="el6rzxmko3ss3" class="animable"></path><path d="M112.19,362.7a1.72,1.72,0,1,0-1.72,1.71A1.72,1.72,0,0,0,112.19,362.7Z" style="fill: rgb(102, 102, 102); transform-origin: 110.47px 362.69px;" id="elynrdm0qi91" class="animable"></path><path d="M123.05,362.7a1.72,1.72,0,1,0-1.71,1.71A1.71,1.71,0,0,0,123.05,362.7Z" style="fill: rgb(102, 102, 102); transform-origin: 121.33px 362.69px;" id="elw8clcdsz1yb" class="animable"></path><path d="M133.92,362.7a1.72,1.72,0,1,0-1.71,1.71A1.72,1.72,0,0,0,133.92,362.7Z" style="fill: rgb(102, 102, 102); transform-origin: 132.2px 362.69px;" id="el9cgjh4o32fo" class="animable"></path><path d="M144.79,362.7a1.72,1.72,0,1,0-1.72,1.71A1.72,1.72,0,0,0,144.79,362.7Z" style="fill: rgb(102, 102, 102); transform-origin: 143.07px 362.69px;" id="elmssm6lpeduq" class="animable"></path><path d="M191.19,70H54.36A16.64,16.64,0,0,0,37.72,86.64V418.56A16.64,16.64,0,0,0,54.36,435.2H191.19a16.64,16.64,0,0,0,16.64-16.64V86.64A16.64,16.64,0,0,0,191.19,70Zm9.25,340.62a16.64,16.64,0,0,1-16.64,16.64h-122a16.64,16.64,0,0,1-16.65-16.64v-316A16.64,16.64,0,0,1,61.76,77.94h22.7l1.41,6.56a8.56,8.56,0,0,0,8.38,6.76H155a8.56,8.56,0,0,0,8.38-6.76l1.41-6.56h19a16.64,16.64,0,0,1,16.64,16.64Z" style="fill: rgb(38, 50, 56); stroke: rgb(38, 50, 56); stroke-miterlimit: 10; stroke-width: 1.6935px; transform-origin: 122.775px 252.6px;" id="el9uoxslhmel6" class="animable"></path></g><g id="freepik--Character--inject-110" class="animable" style="transform-origin: 399.383px 270.519px;"><path d="M365.25,173l-5.75-1.75s-3,6.75-3.25,8.25S365.25,173,365.25,173Z" style="fill: rgb(255, 255, 255); stroke: rgb(38, 50, 56); stroke-miterlimit: 10; transform-origin: 360.748px 175.469px;" id="elwz8pfpuq01r" class="animable"></path><path d="M356,173s-4.5,1.75-4.5,2.75,1.75,6.75,2.5,6.75S356,173,356,173Z" style="fill: rgb(255, 255, 255); stroke: rgb(38, 50, 56); stroke-miterlimit: 10; transform-origin: 353.75px 177.75px;" id="el23jpygnys2b" class="animable"></path><path d="M360.5,172.78s-5.25-1.5-5.75-.5-.5,9-.5,9a8.59,8.59,0,0,0,3.25-1C358.5,179.53,360.5,172.78,360.5,172.78Z" style="fill: rgb(255, 255, 255); stroke: rgb(38, 50, 56); stroke-miterlimit: 10; transform-origin: 357.375px 176.608px;" id="elqqbh4aowyp7" class="animable"></path><path d="M384.5,196.53,373.75,187s-3-8.75-4.25-11.75-2.5-3.5-3.25-3.25-6.75,5.5-9,6.75-5.75,3.75-5.75,3.75-1,1,1.75,1,7.5-3,7.5-3,2,5.25,3.75,7a8.18,8.18,0,0,0,4.5,2L381,206Z" style="fill: rgb(255, 255, 255); stroke: rgb(38, 50, 56); stroke-miterlimit: 10; transform-origin: 367.911px 188.972px;" id="elvtwknzdmxkl" class="animable"></path><path d="M373.75,187s-1.25-6-2.25-7.75-5.75-1.75-9.25-2.5-4.25.5-3.5,1.5,7.5,3,7.5,3,.25,6.75,1.5,8,4,1.5,4,1.5" style="fill: rgb(255, 255, 255); stroke: rgb(38, 50, 56); stroke-miterlimit: 10; transform-origin: 366.118px 183.636px;" id="elvgo7yo5v1pf" class="animable"></path><path d="M432,291.78s4.75,45,6.5,50.75,9.75,23.25,11.5,34.75,6,60.33,6.75,62.58a11.83,11.83,0,0,1,.75,3l-1.25,1.75s-33.5.75-34.25,0,.5-4.5.5-4.5,9.25-5.75,12.5-7.5,6.5-4.25,6.75-8.25-2.5-18.08-6-28.83S424,368.78,420.25,355s-17-62-17-62Z" style="fill: rgb(255, 255, 255); stroke: rgb(38, 50, 56); stroke-miterlimit: 10; transform-origin: 430.375px 368.362px;" id="elhv3jvypgcy" class="animable"></path><path d="M457.5,442.86a11.83,11.83,0,0,0-.75-3c-.18-.53-.55-3.61-1.05-8.14a104.35,104.35,0,0,1-13.2.39l-1-4.75-.6,0c-1.22,2.32-3.56,4-5.9,5.23-3.25,1.75-12.5,7.5-12.5,7.5s-1.25,3.75-.5,4.5,34.25,0,34.25,0Z" style="fill: rgb(166, 176, 192); stroke: rgb(38, 50, 56); stroke-miterlimit: 10; transform-origin: 439.63px 436.142px;" id="elnnii372t8fo" class="animable"></path><path d="M422,444.61c.75.75,34.25,0,34.25,0l1.25-1.75a4,4,0,0,0-.1-.68l-35.53.42C421.72,443.47,421.69,444.3,422,444.61Z" style="fill: rgb(255, 255, 255); stroke: rgb(38, 50, 56); stroke-miterlimit: 10; transform-origin: 439.63px 443.562px;" id="elc4sbkbtx7xc" class="animable"></path><path d="M388.5,296s2.75,16.5,5,25.25,7,28,7,28,.5,21.5,1,29.75,3,30.75,3.5,33.5.25,12,.25,12a44.58,44.58,0,0,1-11.5,8.5c-9,4.8-15.25,7.25-16.5,8s.5,3.25,1.75,3.75,37.5,0,37.5,0,2.5-.25,2-6.25,1-33.25,1-37.25,6-29.25,4.25-43-2.5-16.5-2.5-16.5l-.75-46.25L387.75,294Z" style="fill: rgb(255, 255, 255); stroke: rgb(38, 50, 56); stroke-miterlimit: 10; transform-origin: 400.445px 369.486px;" id="elmuqhady6klh" class="animable"></path><path d="M406.25,431.53a9.26,9.26,0,0,0-1-3.75c-1-2-1.75-1.5-1.75-1.5h0a49.38,49.38,0,0,1-9.71,6.75c-9,4.8-15.25,7.25-16.5,8s.5,3.25,1.75,3.75,37.5,0,37.5,0,2.5-.25,2-6.25c-.12-1.41-.12-4-.07-7.17A79.62,79.62,0,0,1,406.25,431.53Z" style="fill: rgb(166, 176, 192); stroke: rgb(38, 50, 56); stroke-miterlimit: 10; transform-origin: 397.733px 435.613px;" id="el758n6472b1c" class="animable"></path><path d="M416.5,444.78s1.41-.14,1.9-2.75H376.84a4.25,4.25,0,0,0,2.16,2.75C380.25,445.28,416.5,444.78,416.5,444.78Z" style="fill: rgb(255, 255, 255); stroke: rgb(38, 50, 56); stroke-miterlimit: 10; transform-origin: 397.62px 443.516px;" id="elgscbd4klhn6" class="animable"></path><polygon points="434.25 274.28 437 293.03 426.5 293.53 434.25 274.28" style="fill: rgb(140, 140, 140); stroke: rgb(38, 50, 56); stroke-miterlimit: 10; transform-origin: 431.75px 283.905px;" id="eldacvnfhev9n" class="animable"></polygon><path d="M394,232.53s-6.25,11.25-9.5,31.75-1.75,27-1.75,27a91.56,91.56,0,0,0,22,4.5,100.78,100.78,0,0,0,24.75-1.5s4-11.75,6.25-16.75,6.25-15,4.25-26.5-5-18-5-18Z" style="fill: rgb(140, 140, 140); stroke: rgb(38, 50, 56); stroke-miterlimit: 10; transform-origin: 411.474px 264.254px;" id="elhh5fwxlhjj6" class="animable"></path><path d="M383,289.28h-3.25v3L380,294l1.25.75v3s2-.25,3-.25a3.49,3.49,0,0,1,2,1l1.25-.75,1.75,2,1.25-.5s.5,4,2,2.25,2-2.75,3-2.75a19.3,19.3,0,0,1,2.5.25s.75-2.5,3.25-.25l2.5,2.25,2-1,2.5,1,1.5-.5H412s5,2.25,5.25,1.5.75-2,.75-2l1.5.25a2.19,2.19,0,0,1,1.5-.5c1,0,2,1.25,3.5,0a2.84,2.84,0,0,1,2.75-.75l1.5-.5,2.25-.25-.25-2.75,3.25,1.75,2-2,1-2.25-4.07-1H429.5l-2,.75-1,.75-3.5-.75h-2.75l-6,2.25H412.5c-3.5-1.75-3.75-1.5-5.5-1.5a14.62,14.62,0,0,0-3.5.5l-2.75.25-2-.25a6.66,6.66,0,0,0-2-1,19.44,19.44,0,0,0-3.25-.25s1.75,1.5-1.75-.75-4.25-2.25-5.5-2.25a3.85,3.85,0,0,0-2,.5Z" style="fill: rgb(255, 255, 255); stroke: rgb(38, 50, 56); stroke-miterlimit: 10; transform-origin: 408.375px 295.717px;" id="el1d0noocmdy3" class="animable"></path><path d="M401.18,245.14a21.19,21.19,0,0,0,1.57,5.64,15.66,15.66,0,0,0,10,8.75" style="fill: none; stroke: rgb(38, 50, 56); stroke-miterlimit: 10; transform-origin: 406.965px 252.335px;" id="el19jo9vk3rfk" class="animable"></path><path d="M401.5,234.28a34.8,34.8,0,0,0-.58,8" style="fill: none; stroke: rgb(38, 50, 56); stroke-miterlimit: 10; transform-origin: 401.194px 238.28px;" id="elewbafctovcd" class="animable"></path><path d="M408,289.55c-.19,1.5-.29,2.23-.29,2.23" style="fill: none; stroke: rgb(38, 50, 56); stroke-miterlimit: 10; transform-origin: 407.855px 290.665px;" id="ely51h1f5v27" class="animable"></path><path d="M417,234.78s-5.5,26.75-7,39c-.71,5.8-1.25,10.15-1.63,13.11" style="fill: none; stroke: rgb(38, 50, 56); stroke-miterlimit: 10; transform-origin: 412.685px 260.835px;" id="elfk4jqsshl0d" class="animable"></path><path d="M391.81,253.8c-1.58,8-2.88,16.31-2.31,19.73,1.25,7.5,18,8,18.75,7.75" style="fill: none; stroke: rgb(38, 50, 56); stroke-miterlimit: 10; transform-origin: 398.807px 267.563px;" id="elnaj95la2qq" class="animable"></path><path d="M396,235s-1.69,6.76-3.37,14.73" style="fill: none; stroke: rgb(38, 50, 56); stroke-miterlimit: 10; transform-origin: 394.315px 242.365px;" id="el7fje2h1wm" class="animable"></path><polyline points="436.75 242.53 421.5 244.53 421.75 246.03 436.25 244.78" style="fill: none; stroke: rgb(38, 50, 56); stroke-miterlimit: 10; transform-origin: 429.125px 244.28px;" id="elzew7mson9l" class="animable"></polyline><path d="M395.75,199,376,188.78l-5.5,13.75s21.5,16.75,23,17.5S395.75,199,395.75,199Z" style="fill: rgb(166, 176, 192); stroke: rgb(38, 50, 56); stroke-miterlimit: 10; transform-origin: 383.125px 204.414px;" id="eluzgrits6r4" class="animable"></path><path d="M407,164s-13.25,31.75-14.5,46.25-1.25,24.5-1.25,24.5l46-.25S443,201,444.75,181s-8.75-25.5-19.25-25.5S409.25,158.78,407,164Z" style="fill: rgb(166, 176, 192); stroke: rgb(38, 50, 56); stroke-miterlimit: 10; transform-origin: 418.096px 195.125px;" id="ell9zvm7sx4k" class="animable"></path><path d="M373,117.59s-9.08-3.35-11.71,2.63,9.08,16.73,17,16.73,7.64-13.86,4.54-17.45S373,117.59,373,117.59Z" style="fill: rgb(38, 50, 56); stroke: rgb(38, 50, 56); stroke-linecap: round; stroke-linejoin: round; transform-origin: 372.883px 126.802px;" id="elzukpm247zs" class="animable"></path><path d="M378.26,123.09s-1.44,7.4-.48,11.47,3.58,5,3.58,7.16-2.39,3.83-1.43,6c1.41,3.18,3.82,2.87,3.82,2.87s6.69,8.84,9.8,9.08,7.89-3.59,7.89-3.59l5.25,8.84s7.41-12.42,2.39-22.94-11.71-13.38-18.16-15.29S378.26,123.09,378.26,123.09Z" style="fill: rgb(255, 255, 255); stroke: rgb(38, 50, 56); stroke-linecap: round; stroke-linejoin: round; transform-origin: 394.137px 144.005px;" id="elkb73en20di" class="animable"></path><path d="M384.9,139.49c-.59-1.06-.67-2.15-.18-2.42s1.36.38,1.95,1.45.66,2.14.17,2.41S385.48,140.56,384.9,139.49Z" style="fill: rgb(38, 50, 56); transform-origin: 385.782px 139px;" id="elvyljdfbv6ej" class="animable"></path><path d="M388.12,150.23A7.07,7.07,0,0,0,392.3,149a4,4,0,0,0,1.56-3.77" style="fill: none; stroke: rgb(38, 50, 56); stroke-linecap: round; stroke-linejoin: round; transform-origin: 391.01px 147.731px;" id="els1i0ctfa1ur" class="animable"></path><path d="M381,135.63a2.65,2.65,0,0,1,2.29-2.95c2.63-.49,3.78.49,3.78.49" style="fill: none; stroke: rgb(38, 50, 56); stroke-linecap: round; stroke-linejoin: round; transform-origin: 384.025px 134.086px;" id="el7vfubsxujhi" class="animable"></path><path d="M374.43,120s7.89,7.65,14.34,9.32a84.07,84.07,0,0,1,8.84,2.63s12.19,14.33,9.8,22-4.06,10.52-3.82,13.86,3.82,4.78,1,7.41-4.06,1.19-4.06,1.19,3.35,2.63,6.93,2.63,5.26-5.73,8.36-11.47,3.35-7.88,9.08-7.17,13.63,12.19,14.82,19.12S441.82,200,441.82,200a66.74,66.74,0,0,0,11-6.45c6.93-4.78,7.17-15.53,5.26-24.37s-10.51-16.73-16.73-24.86-11.95-20.55-19.11-34.17-15.06-16.25-25.81-12.66S376.1,109,376.1,109s-5-3.83-9.08,1S374.43,120,374.43,120Z" style="fill: rgb(38, 50, 56); stroke: rgb(38, 50, 56); stroke-linecap: round; stroke-linejoin: round; transform-origin: 412.624px 148.017px;" id="elsz87d4n72qh" class="animable"></path><path d="M422.42,152.51a8.41,8.41,0,0,1-.09,4" style="fill: none; stroke: rgb(140, 140, 140); stroke-miterlimit: 10; transform-origin: 422.474px 154.51px;" id="el9dcto3okaaw" class="animable"></path><path d="M400.92,132.46a41.9,41.9,0,0,1,14.72,8.36,20.13,20.13,0,0,1,6.22,9.3" style="fill: none; stroke: rgb(140, 140, 140); stroke-miterlimit: 10; transform-origin: 411.39px 141.29px;" id="elhjqe0cy14nr" class="animable"></path><path d="M449.53,186.78a23.71,23.71,0,0,1-1.45,3.21" style="fill: none; stroke: rgb(140, 140, 140); stroke-miterlimit: 10; transform-origin: 448.805px 188.385px;" id="elbglw7i9g2oe" class="animable"></path><path d="M392.49,121.89a35.47,35.47,0,0,0,5.42,2.21c11.71,3.67,29.1,10,41.81,29.1,9.33,14,11.81,22.93,10.75,29.88" style="fill: none; stroke: rgb(140, 140, 140); stroke-miterlimit: 10; transform-origin: 421.594px 152.485px;" id="elbsxgmp2obv" class="animable"></path><path d="M382.52,113.06s1.82,3.64,7,7.08" style="fill: none; stroke: rgb(140, 140, 140); stroke-miterlimit: 10; transform-origin: 386.02px 116.6px;" id="el4b5mma4ia9d" class="animable"></path><g id="elgod5f1f51sh"><rect x="348.43" y="164.19" width="2.37" height="34.64" rx="0.76" style="fill: rgb(166, 176, 192); stroke: rgb(38, 50, 56); stroke-miterlimit: 10; transform-origin: 349.615px 181.51px; transform: rotate(-31.07deg);" class="animable"></rect></g><path d="M364.75,202.78,361,198.53s-.25-1.75-3-6-5.5-5-6.75-7.25-2.5-5.25-3.75-5.25h-1.25a2.32,2.32,0,0,0-3,1.75c-.75,2.5-2.5,5.75-1.5,7.25s1.75,7.25,2.5,10,12.5,6.75,12.5,6.75l7.25,3.75Z" style="fill: rgb(255, 255, 255); stroke: rgb(38, 50, 56); stroke-miterlimit: 10; transform-origin: 353.1px 194.722px;" id="elvp0oytxazkn" class="animable"></path><path d="M346.25,180s-1.5,1.25.25,4,2.75,6.25,4,8.5" style="fill: rgb(255, 255, 255); stroke: rgb(38, 50, 56); stroke-miterlimit: 10; transform-origin: 348.076px 186.25px;" id="elmozpnvcmxgt" class="animable"></path><path d="M421.5,165.53s-7.25.25-12.5,9.25-11.5,44-11.5,44l-34.75-18.5L360.5,220s12.5,7.75,20,10.75,23.93,5.44,27.18,5.44,9.42-6.11,10.67-8.86S430,185.28,430,185.28" style="fill: rgb(166, 176, 192); stroke: rgb(38, 50, 56); stroke-miterlimit: 10; transform-origin: 395.25px 200.86px;" id="elshbf8rswibi" class="animable"></path></g><g id="freepik--Floor--inject-110" class="animable" style="transform-origin: 250.5px 445px;"><line x1="278.56" y1="445" x2="484" y2="445" style="fill: none; stroke: rgb(38, 50, 56); stroke-miterlimit: 10; transform-origin: 381.28px 445px;" id="elmbfpnoqexko" class="animable"></line><line x1="29.18" y1="445" x2="269.72" y2="445" style="fill: none; stroke: rgb(38, 50, 56); stroke-miterlimit: 10; transform-origin: 149.45px 445px;" id="el8480t6kt2hv" class="animable"></line><line x1="17" y1="445" x2="22.94" y2="445" style="fill: none; stroke: rgb(38, 50, 56); stroke-miterlimit: 10; transform-origin: 19.97px 445px;" id="elgupqtde96jf" class="animable"></line></g><defs>     <filter id="active" height="200%">         <feMorphology in="SourceAlpha" result="DILATED" operator="dilate" radius="2"></feMorphology>                <feFlood flood-color="#32DFEC" flood-opacity="1" result="PINK"></feFlood>        <feComposite in="PINK" in2="DILATED" operator="in" result="OUTLINE"></feComposite>        <feMerge>            <feMergeNode in="OUTLINE"></feMergeNode>            <feMergeNode in="SourceGraphic"></feMergeNode>        </feMerge>    </filter>    <filter id="hover" height="200%">        <feMorphology in="SourceAlpha" result="DILATED" operator="dilate" radius="2"></feMorphology>                <feFlood flood-color="#ff0000" flood-opacity="0.5" result="PINK"></feFlood>        <feComposite in="PINK" in2="DILATED" operator="in" result="OUTLINE"></feComposite>        <feMerge>            <feMergeNode in="OUTLINE"></feMergeNode>            <feMergeNode in="SourceGraphic"></feMergeNode>        </feMerge>            <feColorMatrix type="matrix" values="0   0   0   0   0                0   1   0   0   0                0   0   0   0   0                0   0   0   1   0 "></feColorMatrix>    </filter></defs></svg>